# xmcd
#
# Track frame offsets: 
#        150
#        19629
#        37277
#        55783
#        81032
#        101702
#        120963
#        146594
#        169010
#        192269
#        210107
#        232344
#
# Disc length: 3363 seconds
#
# Revision: 0
# Processed by: cddbd v1.5.2PL0 Copyright (c) Steve Scherf et al.
# Submitted via: ExactAudioCopy v0.99pb5
#
DISCID=9c0d210c
DTITLE=Angela Brown and the Mighty 45s - In a Dangerous Mood
DYEAR=1900
DGENRE=Blues
TTITLE0=I Can Stand a Little Rain
TTITLE1=CC Rider
TTITLE2=Either Way We Lose
TTITLE3=Why Does Everything Change
TTITLE4=People Will Be People
TTITLE5=What Condition My Condition Is In
TTITLE6=Sunday Kind Of Love
TTITLE7=Dangerous Mood
TTITLE8=I Want a Little Sugar In My Bowl
TTITLE9=Waiting For The Blues
TTITLE10=Bip Bam Thank You Ma'am
TTITLE11=Glory Glory Halellulia
EXTD=
EXTT0=
EXTT1=
EXTT2=
EXTT3=
EXTT4=
EXTT5=
EXTT6=
EXTT7=
EXTT8=
EXTT9=
EXTT10=
EXTT11=
PLAYORDER=
